<mxfile host="app.diagrams.net" modified="2024-04-03T18:40:07.063Z" agent="Mozilla/5.0 (Macintosh; Intel Mac OS X 10_15_7) AppleWebKit/605.1.15 (KHTML, like Gecko) Version/17.2.1 Safari/605.1.15" version="24.2.1" etag="sQjk99wJYW1ntj5AuBD3" type="github">
  <diagram name="Page-1" id="GvE0nEj8P0KnIVInpWVg">
    <mxGraphModel>
      <root>
        <mxCell id="0" />
        <mxCell id="1" parent="0" />
      </root>
    </mxGraphModel>
  </diagram>
</mxfile>
